<svg width="1200" height="760" viewBox="0 0 1200 760" fill="none" xmlns="http://www.w3.org/2000/svg">
  <defs>
    <linearGradient id="panel" x1="176" y1="154" x2="1004" y2="626" gradientUnits="userSpaceOnUse">
      <stop stop-color="#FFFFFF" stop-opacity="0.94"/>
      <stop offset="1" stop-color="#EAF6FF" stop-opacity="0.9"/>
    </linearGradient>
    <linearGradient id="lineBlue" x1="187" y1="0" x2="187" y2="760" gradientUnits="userSpaceOnUse">
      <stop stop-color="#1E63B5" stop-opacity="0.22"/>
      <stop offset="1" stop-color="#1E63B5" stop-opacity="0"/>
    </linearGradient>
    <linearGradient id="lineTeal" x1="1014" y1="0" x2="1014" y2="760" gradientUnits="userSpaceOnUse">
      <stop stop-color="#27B3A8" stop-opacity="0.18"/>
      <stop offset="1" stop-color="#27B3A8" stop-opacity="0"/>
    </linearGradient>
    <linearGradient id="accent" x1="688" y1="252" x2="1064" y2="580" gradientUnits="userSpaceOnUse">
      <stop stop-color="#1E63B5" stop-opacity="0.22"/>
      <stop offset="0.5" stop-color="#1B84D6" stop-opacity="0.16"/>
      <stop offset="1" stop-color="#43B05C" stop-opacity="0.14"/>
    </linearGradient>
    <linearGradient id="chartStroke" x1="0" y1="0" x2="1" y2="1">
      <stop stop-color="#1E63B5"/>
      <stop offset="1" stop-color="#27B3A8"/>
    </linearGradient>
    <radialGradient id="glowBlue" cx="0" cy="0" r="1" gradientUnits="userSpaceOnUse" gradientTransform="translate(868 240) rotate(90) scale(212 296)">
      <stop stop-color="#6FD4FF" stop-opacity="0.35"/>
      <stop offset="1" stop-color="#6FD4FF" stop-opacity="0"/>
    </radialGradient>
    <radialGradient id="glowGreen" cx="0" cy="0" r="1" gradientUnits="userSpaceOnUse" gradientTransform="translate(924 560) rotate(90) scale(170 240)">
      <stop stop-color="#8FD14F" stop-opacity="0.28"/>
      <stop offset="1" stop-color="#8FD14F" stop-opacity="0"/>
    </radialGradient>
    <filter id="blur" x="0" y="0" width="1200" height="760" filterUnits="userSpaceOnUse" color-interpolation-filters="sRGB">
      <feGaussianBlur stdDeviation="40"/>
    </filter>
    <filter id="shadow" x="120" y="110" width="940" height="590" filterUnits="userSpaceOnUse" color-interpolation-filters="sRGB">
      <feDropShadow dx="0" dy="24" stdDeviation="26" flood-color="#0A3F8F" flood-opacity="0.12"/>
    </filter>
  </defs>

  <g opacity="0.9">
    <path d="M186 0V760" stroke="url(#lineBlue)" stroke-width="1.5" stroke-dasharray="8 12"/>
    <path d="M1014 0V760" stroke="url(#lineTeal)" stroke-width="1.5" stroke-dasharray="8 12"/>
    <path d="M0 164H1200" stroke="#DDEAF8" stroke-width="1.5"/>
    <path d="M0 522H1200" stroke="#E6F4FF" stroke-width="1.5"/>
  </g>

  <g filter="url(#blur)" opacity="0.85">
    <ellipse cx="868" cy="240" rx="172" ry="120" fill="url(#glowBlue)"/>
    <ellipse cx="924" cy="560" rx="144" ry="96" fill="url(#glowGreen)"/>
  </g>

  <g filter="url(#shadow)">
    <rect x="178" y="152" width="846" height="454" rx="34" fill="url(#panel)"/>
    <rect x="178.75" y="152.75" width="844.5" height="452.5" rx="33.25" stroke="white" stroke-opacity="0.86" stroke-width="1.5"/>
  </g>

  <rect x="212" y="188" width="318" height="170" rx="24" fill="#F8FCFF"/>
  <rect x="212.75" y="188.75" width="316.5" height="168.5" rx="23.25" stroke="#D8E7F6" stroke-width="1.5"/>
  <rect x="236" y="216" width="78" height="12" rx="6" fill="#0A3F8F" fill-opacity="0.12"/>
  <rect x="236" y="246" width="128" height="20" rx="10" fill="#0A3F8F" fill-opacity="0.8"/>
  <rect x="236" y="278" width="92" height="10" rx="5" fill="#64748B" fill-opacity="0.18"/>
  <rect x="236" y="311" width="270" height="16" rx="8" fill="#E7F2FB"/>
  <rect x="236" y="311" width="188" height="16" rx="8" fill="url(#accent)"/>

  <rect x="562" y="188" width="428" height="250" rx="28" fill="#FFFFFF"/>
  <rect x="562.75" y="188.75" width="426.5" height="248.5" rx="27.25" stroke="#DDEAF8" stroke-width="1.5"/>
  <rect x="594" y="220" width="92" height="12" rx="6" fill="#0A3F8F" fill-opacity="0.1"/>
  <rect x="594" y="252" width="160" height="22" rx="11" fill="#1E63B5" fill-opacity="0.12"/>
  <rect x="594" y="290" width="362" height="110" rx="18" fill="#F7FBFF"/>
  <path d="M624 360L686 332L741 346L804 296L864 314L920 270" stroke="url(#chartStroke)" stroke-width="6" stroke-linecap="round" stroke-linejoin="round"/>
  <circle cx="624" cy="360" r="8" fill="#1E63B5"/>
  <circle cx="686" cy="332" r="8" fill="#1B84D6"/>
  <circle cx="741" cy="346" r="8" fill="#27B3A8"/>
  <circle cx="804" cy="296" r="8" fill="#43B05C"/>
  <circle cx="864" cy="314" r="8" fill="#1B84D6"/>
  <circle cx="920" cy="270" r="8" fill="#0A3F8F"/>

  <rect x="212" y="392" width="236" height="178" rx="24" fill="#FFFFFF"/>
  <rect x="212.75" y="392.75" width="234.5" height="176.5" rx="23.25" stroke="#DDEAF8" stroke-width="1.5"/>
  <rect x="238" y="420" width="76" height="12" rx="6" fill="#0A3F8F" fill-opacity="0.12"/>
  <rect x="238" y="454" width="46" height="84" rx="18" fill="#1E63B5" fill-opacity="0.18"/>
  <rect x="296" y="432" width="46" height="106" rx="18" fill="#1B84D6" fill-opacity="0.24"/>
  <rect x="354" y="402" width="46" height="136" rx="18" fill="#27B3A8" fill-opacity="0.24"/>

  <rect x="480" y="470" width="232" height="100" rx="24" fill="#FBFEFF"/>
  <rect x="480.75" y="470.75" width="230.5" height="98.5" rx="23.25" stroke="#DDEAF8" stroke-width="1.5"/>
  <rect x="508" y="500" width="78" height="12" rx="6" fill="#0A3F8F" fill-opacity="0.12"/>
  <rect x="508" y="528" width="122" height="18" rx="9" fill="#43B05C" fill-opacity="0.16"/>
  <rect x="642" y="528" width="42" height="18" rx="9" fill="#1E63B5" fill-opacity="0.14"/>

  <rect x="740" y="470" width="250" height="100" rx="24" fill="#FBFEFF"/>
  <rect x="740.75" y="470.75" width="248.5" height="98.5" rx="23.25" stroke="#DDEAF8" stroke-width="1.5"/>
  <circle cx="786" cy="520" r="24" fill="#E6F4FF"/>
  <path d="M774 520H798" stroke="#1E63B5" stroke-width="5" stroke-linecap="round"/>
  <path d="M786 508V532" stroke="#1E63B5" stroke-width="5" stroke-linecap="round"/>
  <rect x="826" y="500" width="110" height="12" rx="6" fill="#0A3F8F" fill-opacity="0.12"/>
  <rect x="826" y="528" width="82" height="18" rx="9" fill="#27B3A8" fill-opacity="0.16"/>
</svg>
